HIERARCHY
ROOT Root
{
  OFFSET 0.0 0.0 0.0
  CHANNELS 6 Xposition Yposition Zposition Zrotation Yrotation Xrotation
  JOINT Hips
  {
    OFFSET 0.0 100.0 0.0
    CHANNELS 6 Xposition Yposition Zposition Zrotation Yrotation Xrotation
    JOINT Spine1
    {
      OFFSET -0.013727 5.003763 -0.053727
      CHANNELS 3 Zrotation Yrotation Xrotation
      JOINT Spine2
      {
        OFFSET -0.0 7.125301 -0.029825
        CHANNELS 3 Zrotation Yrotation Xrotation
        JOINT Chest
        {
          OFFSET -1e-06 7.550063 -0.815971
          CHANNELS 3 Zrotation Yrotation Xrotation
          JOINT Neck1
          {
            OFFSET -0.181677 26.311295 -0.553348
            CHANNELS 3 Zrotation Yrotation Xrotation
            JOINT Neck2
            {
              OFFSET -3e-06 7.709397 2.302585
              CHANNELS 3 Zrotation Yrotation Xrotation
              JOINT Head
              {
                OFFSET -5e-06 6.128916 1.953709
                CHANNELS 3 Zrotation Yrotation Xrotation
                JOINT HeadEnd
                {
                  OFFSET 0.003598 16.065403 -1.835379
                  CHANNELS 3 Zrotation Yrotation Xrotation
                }
                JOINT Jaw
                {
                  OFFSET 0.002637 0.475592 3.094941
                  CHANNELS 3 Zrotation Yrotation Xrotation
                }
                JOINT LeftEye
                {
                  OFFSET 3.206381 5.380205 7.586883
                  CHANNELS 3 Zrotation Yrotation Xrotation
                }
                JOINT RightEye
                {
                  OFFSET -3.22244 5.361869 7.558234
                  CHANNELS 3 Zrotation Yrotation Xrotation
                }
              }
            }
          }
          JOINT LeftShoulder
          {
            OFFSET 1.621652 23.237164 5.113413
            CHANNELS 3 Zrotation Yrotation Xrotation
            JOINT LeftArm
            {
              OFFSET 14.919846 2e-06 -5.502326
              CHANNELS 3 Zrotation Yrotation Xrotation
              JOINT LeftForeArm
              {
                OFFSET 28.739307 0.0 -0.002588
                CHANNELS 3 Zrotation Yrotation Xrotation
                JOINT LeftHand
                {
                  OFFSET 27.093981 -1e-06 0.002609
                  CHANNELS 3 Zrotation Yrotation Xrotation
                  JOINT LeftHandThumb1
                  {
                    OFFSET 2.276482 -1.392045 3.191413
                    CHANNELS 3 Zrotation Yrotation Xrotation
                    JOINT LeftHandThumb2
                    {
                      OFFSET 4.012836 -1.828127 1.641654
                      CHANNELS 3 Zrotation Yrotation Xrotation
                      JOINT LeftHandThumb3
                      {
                        OFFSET 2.798515 0.0 -3e-06
                        CHANNELS 3 Zrotation Yrotation Xrotation
                        JOINT LeftHandThumbEnd
                        {
                          OFFSET 3.180793 -4e-06 4e-06
                          CHANNELS 3 Zrotation Yrotation Xrotation
                        }
                      }
                    }
                  }
                  JOINT LeftHandIndex1
                  {
                    OFFSET 3.247555 -0.531998 2.296169
                    CHANNELS 3 Zrotation Yrotation Xrotation
                    JOINT LeftHandIndex2
                    {
                      OFFSET 6.364578 0.01206 0.1786
                      CHANNELS 3 Zrotation Yrotation Xrotation
                      JOINT LeftHandIndex3
                      {
                        OFFSET 3.662364 0.0 0.0
                        CHANNELS 3 Zrotation Yrotation Xrotation
                        JOINT LeftHandIndex4
                        {
                          OFFSET 2.329242 4e-06 4e-06
                          CHANNELS 3 Zrotation Yrotation Xrotation
                          JOINT LeftHandIndexEnd
                          {
                            OFFSET 2.759615 -0.180537 -0.113024
                            CHANNELS 3 Zrotation Yrotation Xrotation
                          }
                        }
                      }
                    }
                  }
                  JOINT LeftHandMiddle1
                  {
                    OFFSET 3.163495 0.240981 1.000332
                    CHANNELS 3 Zrotation Yrotation Xrotation
                    JOINT LeftHandMiddle2
                    {
                      OFFSET 6.19078 -0.259278 -1.002548
                      CHANNELS 3 Zrotation Yrotation Xrotation
                      JOINT LeftHandMiddle3
                      {
                        OFFSET 4.35652 -4e-06 -1e-06
                        CHANNELS 3 Zrotation Yrotation Xrotation
                        JOINT LeftHandMiddle4
                        {
                          OFFSET 2.996877 -8e-06 0.0
                          CHANNELS 3 Zrotation Yrotation Xrotation
                          JOINT LeftHandMiddleEnd
                          {
                            OFFSET 2.304287 -0.294569 -0.031741
                            CHANNELS 3 Zrotation Yrotation Xrotation
                          }
                        }
                      }
                    }
                  }
                  JOINT LeftHandRing1
                  {
                    OFFSET 2.882643 -0.053652 -0.322543
                    CHANNELS 3 Zrotation Yrotation Xrotation
                    JOINT LeftHandRing2
                    {
                      OFFSET 5.854541 -0.486202 -1.373841
                      CHANNELS 3 Zrotation Yrotation Xrotation
                      JOINT LeftHandRing3
                      {
                        OFFSET 4.350578 0.0 3e-06
                        CHANNELS 3 Zrotation Yrotation Xrotation
                        JOINT LeftHandRing4
                        {
                          OFFSET 2.651321 7e-06 2e-06
                          CHANNELS 3 Zrotation Yrotation Xrotation
                          JOINT LeftHandRingEnd
                          {
                            OFFSET 1.936105 0.077687 -7.1e-05
                            CHANNELS 3 Zrotation Yrotation Xrotation
                          }
                        }
                      }
                    }
                  }
                  JOINT LeftHandPinky1
                  {
                    OFFSET 2.8655 -0.310005 -1.600378
                    CHANNELS 3 Zrotation Yrotation Xrotation
                    JOINT LeftHandPinky2
                    {
                      OFFSET 5.087849 -1.331141 -1.77123
                      CHANNELS 3 Zrotation Yrotation Xrotation
                      JOINT LeftHandPinky3
                      {
                        OFFSET 3.070974 4e-06 0.0
                        CHANNELS 3 Zrotation Yrotation Xrotation
                        JOINT LeftHandPinky4
                        {
                          OFFSET 1.549672 0.0 1e-06
                          CHANNELS 3 Zrotation Yrotation Xrotation
                          JOINT LeftHandPinkyEnd
                          {
                            OFFSET 1.944893 -0.157802 0.057219
                            CHANNELS 3 Zrotation Yrotation Xrotation
                          }
                        }
                      }
                    }
                  }
                }
              }
            }
          }
          JOINT RightShoulder
          {
            OFFSET -1.380118 23.180309 5.214158
            CHANNELS 3 Zrotation Yrotation Xrotation
            JOINT RightArm
            {
              OFFSET -15.037196 1.2e-05 -5.545604
              CHANNELS 3 Zrotation Yrotation Xrotation
              JOINT RightForeArm
              {
                OFFSET -28.736639 2e-06 -0.002597
                CHANNELS 3 Zrotation Yrotation Xrotation
                JOINT RightHand
                {
                  OFFSET -27.133619 -0.0 0.002613
                  CHANNELS 3 Zrotation Yrotation Xrotation
                  JOINT RightHandThumb1
                  {
                    OFFSET -2.274032 -1.383988 3.163127
                    CHANNELS 3 Zrotation Yrotation Xrotation
                    JOINT RightHandThumb2
                    {
                      OFFSET -4.011429 -1.827466 1.640914
                      CHANNELS 3 Zrotation Yrotation Xrotation
                      JOINT RightHandThumb3
                      {
                        OFFSET -2.794935 -4e-06 -3e-06
                        CHANNELS 3 Zrotation Yrotation Xrotation
                        JOINT RightHandThumbEnd
                        {
                          OFFSET -3.183852 4e-06 1e-06
                          CHANNELS 3 Zrotation Yrotation Xrotation
                        }
                      }
                    }
                  }
                  JOINT RightHandIndex1
                  {
                    OFFSET -3.253266 -0.520057 2.282866
                    CHANNELS 3 Zrotation Yrotation Xrotation
                    JOINT RightHandIndex2
                    {
                      OFFSET -6.341917 0.012471 0.178266
                      CHANNELS 3 Zrotation Yrotation Xrotation
                      JOINT RightHandIndex3
                      {
                        OFFSET -3.654871 -8e-06 -0.0
                        CHANNELS 3 Zrotation Yrotation Xrotation
                        JOINT RightHandIndex4
                        {
                          OFFSET -2.327586 0.0 1e-06
                          CHANNELS 3 Zrotation Yrotation Xrotation
                          JOINT RightHandIndexEnd
                          {
                            OFFSET -2.76179 -0.180656 -0.113078
                            CHANNELS 3 Zrotation Yrotation Xrotation
                          }
                        }
                      }
                    }
                  }
                  JOINT RightHandMiddle1
                  {
                    OFFSET -3.168106 0.246593 1.00103
                    CHANNELS 3 Zrotation Yrotation Xrotation
                    JOINT RightHandMiddle2
                    {
                      OFFSET -6.180828 -0.258836 -1.000895
                      CHANNELS 3 Zrotation Yrotation Xrotation
                      JOINT RightHandMiddle3
                      {
                        OFFSET -4.348901 0.0 -0.0
                        CHANNELS 3 Zrotation Yrotation Xrotation
                        JOINT RightHandMiddle4
                        {
                          OFFSET -3.00024 -4e-06 -2e-06
                          CHANNELS 3 Zrotation Yrotation Xrotation
                          JOINT RightHandMiddleEnd
                          {
                            OFFSET -2.30252 -0.29437 -0.031706
                            CHANNELS 3 Zrotation Yrotation Xrotation
                          }
                        }
                      }
                    }
                  }
                  JOINT RightHandRing1
                  {
                    OFFSET -2.88569 -0.067952 -0.308858
                    CHANNELS 3 Zrotation Yrotation Xrotation
                    JOINT RightHandRing2
                    {
                      OFFSET -5.854198 -0.48613 -1.373731
                      CHANNELS 3 Zrotation Yrotation Xrotation
                      JOINT RightHandRing3
                      {
                        OFFSET -4.33881 -4e-06 -0.0
                        CHANNELS 3 Zrotation Yrotation Xrotation
                        JOINT RightHandRing4
                        {
                          OFFSET -2.654903 -4e-06 4e-06
                          CHANNELS 3 Zrotation Yrotation Xrotation
                          JOINT RightHandRingEnd
                          {
                            OFFSET -1.933568 0.077527 -5.2e-05
                            CHANNELS 3 Zrotation Yrotation Xrotation
                          }
                        }
                      }
                    }
                  }
                  JOINT RightHandPinky1
                  {
                    OFFSET -2.866425 -0.342796 -1.584145
                    CHANNELS 3 Zrotation Yrotation Xrotation
                    JOINT RightHandPinky2
                    {
                      OFFSET -5.091371 -1.332055 -1.772385
                      CHANNELS 3 Zrotation Yrotation Xrotation
                      JOINT RightHandPinky3
                      {
                        OFFSET -3.062664 -4e-06 1e-06
                        CHANNELS 3 Zrotation Yrotation Xrotation
                        JOINT RightHandPinky4
                        {
                          OFFSET -1.546529 4e-06 -2e-06
                          CHANNELS 3 Zrotation Yrotation Xrotation
                          JOINT RightHandPinkyEnd
                          {
                            OFFSET -1.945119 -0.157718 0.057211
                            CHANNELS 3 Zrotation Yrotation Xrotation
                          }
                        }
                      }
                    }
                  }
                }
              }
            }
          }
        }
      }
    }
    JOINT LeftLeg
    {
      OFFSET 10.043214 -8.434526 2.595655
      CHANNELS 3 Zrotation Yrotation Xrotation
      JOINT LeftShin
      {
        OFFSET -1e-06 -43.221752 -0.802913
        CHANNELS 3 Zrotation Yrotation Xrotation
        JOINT LeftFoot
        {
          OFFSET 1e-06 -42.155094 -3.481523
          CHANNELS 3 Zrotation Yrotation Xrotation
          JOINT LeftToeBase
          {
            OFFSET 0.0 -5.059472 13.231529
            CHANNELS 3 Zrotation Yrotation Xrotation
            JOINT LeftToeEnd
            {
              OFFSET -0.009607 -1.647619 6.513017
              CHANNELS 3 Zrotation Yrotation Xrotation
            }
          }
        }
      }
    }
    JOINT RightLeg
    {
      OFFSET -10.047278 -8.29526 2.620317
      CHANNELS 3 Zrotation Yrotation Xrotation
      JOINT RightShin
      {
        OFFSET 1e-06 -43.362206 -0.805556
        CHANNELS 3 Zrotation Yrotation Xrotation
        JOINT RightFoot
        {
          OFFSET 2e-06 -42.117393 -3.478398
          CHANNELS 3 Zrotation Yrotation Xrotation
          JOINT RightToeBase
          {
            OFFSET -0.0 -5.079609 13.284196
            CHANNELS 3 Zrotation Yrotation Xrotation
            JOINT RightToeEnd
            {
              OFFSET 0.009532 -1.634378 6.460591
              CHANNELS 3 Zrotation Yrotation Xrotation
            }
          }
        }
      }
    }
  }
}
MOTION
Frames: 4
Frame Time: 0.03333333333333333
0.0 0.0 0.0 0.0 -0.0 0.0 0.543191 92.191086 -6.486854 3.099632 0.539716 3.896287 -1.288372 0.587099 1.818389 -0.819027 1.677065 -3.88017 -1.427573 0.320149 12.719962 -4.991314 3.61983 -2.143617 -0.713893 -0.30997 -3.718728 0.245882 -1.097334 -19.982023 7.7e-05 -2.3e-05 6e-06 0.023369 -0.049012 0.02028 0.612289 -3.829396 -10.692527 -0.582607 3.740302 -10.717021 -13.251944 -7.87038 13.008544 -60.257324 -0.530087 -11.851541 0.181934 -23.086908 -0.023919 4.815536 0.304164 -6.922354 -5.882108 9.861288 0.702591 -10.936874 -0.360575 7.156208 1e-06 8.774828 -1e-06 -16.002144 17.892639 6.238301 -1.844035 2.498505 -2.507278 -10.163602 4.678946 4.62111 -20.97603 -4e-06 2e-06 -21.226292 2.451696 -3.594001 -0.0 -6e-06 -1e-06 -1.362682 2.240798 -0.746324 -21.334917 0.584909 3.008324 -13.821217 -3e-06 2e-06 -23.887175 -0.249079 -0.839483 -60.575127 2.27435 -0.824917 -0.294025 1.679688 0.833256 -14.218212 0.093215 1.30058 -34.212063 -0.287565 0.96717 -20.033216 0.964536 1.212844 0.0 0.0 0.0 -3.440389 0.788233 0.501656 -15.928192 -3.16731 2.999708 -6.338829 -1e-06 1e-06 -18.123453 3.648183 -4.905672 -3e-06 -0.0 -2e-06 7.43488 14.788777 13.922156 63.221794 11.96301 14.984621 -0.796848 25.642969 -0.422549 -9.954588 4.2638 0.213009 2.243541 -5.255037 -3.180158 14.282895 -0.826595 6.952507 -3e-06 -12.690603 1e-06 16.519754 -17.862434 2.474453 1.665666 -1.955921 -2.8783 4.7278 -4.170588 4.993925 11.020529 2e-06 -1e-06 12.109055 -3.735716 -2.866784 0.0 0.0 -0.0 1.291985 -1.928549 -1.49809 14.800131 0.567468 3.865608 14.242576 -1.341736 -6.660656 19.631969 0.143925 -0.648245 50.538811 -0.622372 -6.007401 0.353029 -1.51115 -0.031941 20.222797 3.684309 2.316631 18.787281 5e-06 0.0 10.751631 -0.479869 1.397905 1e-06 1e-06 -2e-06 3.273808 0.305947 -0.580109 21.48682 11.830374 2.266134 8.16293 3e-06 -0.0 18.399088 -3.798984 -4.940574 2e-06 -1e-06 -1e-06 -6.700926 8.597501 -40.348312 -0.041368 0.153541 21.469707 -11.316482 12.659662 -2.861672 1.592685 -2.092053 -6.211212 -0.0 0.0 2e-06 -7.201576 -6.34968 20.342953 -0.095876 0.584522 9.271894 7.480346 -0.815182 -16.892509 -1.419906 0.706036 -8.623211 0.0 0.0 -1e-06 
0.0 0.0 0.0 0.0 -0.0 0.0 1.619737 91.988434 -1.301597 4.410226 0.383171 3.789235 -2.192699 0.666268 1.305968 -0.916276 2.0317 -4.209962 -1.898359 0.148946 12.467448 -4.609785 3.544089 -1.97252 -0.663057 -0.649964 -3.683154 0.605611 -1.497498 -20.147301 7.7e-05 -2.2e-05 6e-06 0.027914 -0.06742 0.009053 0.624834 -3.843526 -10.61422 -0.584523 3.716955 -10.638836 -13.614756 -7.772086 12.915031 -59.458469 0.068979 -10.492208 0.164241 -21.458336 -0.022605 4.946863 0.34053 -7.189612 -5.882109 9.861287 0.702591 -10.936877 -0.360576 7.156209 1e-06 8.774828 -1e-06 -15.802715 18.183401 6.358159 -1.844033 2.498505 -2.507279 -10.163604 4.678946 4.621111 -20.976034 -3e-06 4e-06 -21.226295 2.451698 -3.593999 -0.0 -6e-06 -1e-06 -1.362683 2.240798 -0.746324 -21.334925 0.584909 3.008326 -13.82122 -3e-06 3e-06 -23.887182 -0.249078 -0.839481 -60.429634 2.246526 -0.652176 -0.294025 1.679688 0.833256 -14.218214 0.093214 1.300582 -34.212063 -0.287564 0.967174 -20.033222 0.964538 1.212845 0.0 -0.0 -0.0 -3.44039 0.788233 0.501656 -15.928192 -3.167311 2.999709 -6.338829 -1e-06 2e-06 -18.123453 3.648184 -4.90567 -3e-06 0.0 -2e-06 8.390286 14.140219 14.055625 62.630131 10.7952 14.637082 -0.808823 22.374594 -0.276413 -10.291042 4.022233 0.90538 2.243542 -5.255037 -3.180158 14.2829 -0.826596 6.952506 -2e-06 -12.69061 0.0 16.545565 -17.884966 2.529358 1.665667 -1.955922 -2.8783 4.727802 -4.17059 4.993926 11.020534 3e-06 -1e-06 12.109058 -3.735717 -2.866785 -0.0 -0.0 1e-06 1.291987 -1.928549 -1.498089 14.800136 0.567469 3.86561 14.24258 -1.341735 -6.660661 19.631981 0.143927 -0.648243 50.754269 -0.521484 -6.043446 0.353029 -1.511151 -0.031941 20.222803 3.684311 2.316631 18.787285 5e-06 -0.0 10.751635 -0.479869 1.397907 -1e-06 1e-06 -1e-06 3.273809 0.305946 -0.580111 21.486826 11.830381 2.266132 8.16293 1e-06 -2e-06 18.399096 -3.798985 -4.940577 3e-06 -1e-06 1e-06 -7.810422 5.961519 -40.657322 -0.012106 0.144902 28.815718 -4.077688 12.905855 -1.558092 1.724811 -2.060409 -5.761617 0.0 1e-06 2e-06 -9.670123 -5.758169 21.485638 -0.144087 0.827318 13.449324 8.24408 -1.322618 -11.796596 -1.421298 0.687693 -15.489267 0.0 0.0 -1e-06 
0.0 0.0 0.0 0.0 -0.0 0.0 2.769895 92.447792 4.338592 6.177465 0.75287 3.338279 -3.127188 0.58261 0.893572 -1.161973 2.207385 -4.445232 -2.987813 0.003843 12.396278 -3.454392 3.223361 -1.650069 -0.896931 -0.961997 -3.693115 0.960851 -1.749602 -20.023712 7.7e-05 -2.3e-05 5e-06 0.043046 -0.011017 -0.022593 0.638814 -3.785956 -10.548561 -0.567277 3.768029 -10.588555 -13.559263 -8.24986 13.130482 -58.979591 0.19803 -9.384932 0.068154 -19.717161 -0.072305 5.327585 0.349781 -7.940432 -5.882111 9.861293 0.702591 -10.93688 -0.360575 7.156209 0.0 8.774831 -1e-06 -15.933216 18.247204 6.230888 -1.844035 2.498506 -2.507279 -10.163606 4.678948 4.62111 -20.97604 -3e-06 0.0 -21.226307 2.451698 -3.594004 -0.0 -6e-06 -1e-06 -1.362683 2.2408 -0.746324 -21.334929 0.58491 3.008323 -13.821223 -3e-06 1e-06 -23.887186 -0.24908 -0.839485 -60.342831 2.244224 -0.793528 -0.294026 1.679688 0.833256 -14.218219 0.093215 1.30058 -34.212074 -0.287565 0.967168 -20.03323 0.964536 1.212843 1e-06 -0.0 0.0 -3.440391 0.788234 0.501656 -15.928196 -3.167311 2.999707 -6.338831 -1e-06 0.0 -18.123459 3.648185 -4.905675 -3e-06 -0.0 -2e-06 9.491488 13.457695 14.307246 63.017143 9.362369 12.445073 -0.885119 19.828823 -0.199477 -11.131692 3.376556 1.88943 2.243543 -5.255037 -3.180157 14.282899 -0.826597 6.952506 -2e-06 -12.69061 2e-06 16.639488 -17.939137 2.437922 1.665667 -1.955922 -2.878298 4.727801 -4.17059 4.993922 11.020534 2e-06 -1e-06 12.109059 -3.735717 -2.866785 0.0 -0.0 -1e-06 1.291988 -1.92855 -1.498091 14.800136 0.567467 3.865608 14.242581 -1.341737 -6.660661 19.631979 0.143926 -0.648247 50.571369 -0.307776 -6.244942 0.35303 -1.511151 -0.03194 20.222803 3.68431 2.316629 18.787287 4e-06 -2e-06 10.751634 -0.479869 1.397906 -0.0 -1e-06 0.0 3.27381 0.305947 -0.58011 21.486824 11.830378 2.266132 8.16293 -0.0 -2e-06 18.399096 -3.798986 -4.940579 2e-06 -0.0 -1e-06 -9.305108 2.803117 -38.689232 0.143915 0.054596 33.569664 -0.016508 14.301453 -1.968783 1.730048 -2.029157 -4.406409 0.0 0.0 2e-06 -11.465977 -3.790463 19.383989 -0.266955 1.084402 23.099159 8.326483 -2.557847 -1.994238 -1.551412 0.752366 -25.746439 0.0 0.0 -2e-06 
0.0 0.0 0.0 0.0 -0.0 0.0 3.792502 93.228142 9.947986 7.373321 1.251257 2.232538 -3.715736 0.562575 1.091944 -1.411789 1.919297 -4.410986 -3.884656 -0.301462 12.262017 -2.181113 3.061022 -1.326027 -1.131839 -0.999061 -3.601882 1.028731 -1.815479 -19.304733 7.7e-05 -2.2e-05 6e-06 0.061119 0.058514 -0.005372 0.654172 -3.701886 -10.509037 -0.548565 3.818406 -10.543481 -12.522267 -8.907715 13.366576 -59.724861 -0.189644 -8.233691 -0.05598 -18.434278 -0.127988 5.198748 0.799118 -7.552569 -5.882107 9.861284 0.702591 -10.936873 -0.360575 7.156204 1e-06 8.774824 -1e-06 -16.261343 18.3613 6.001198 -1.844032 2.498504 -2.507277 -10.163601 4.678945 4.621108 -20.976027 -3e-06 3e-06 -21.22629 2.451697 -3.593999 -0.0 -6e-06 -1e-06 -1.362682 2.240798 -0.746323 -21.334917 0.58491 3.008323 -13.821217 -3e-06 2e-06 -23.887175 -0.249078 -0.839482 -60.250519 2.300355 -1.212962 -0.294025 1.679687 0.833256 -14.218212 0.093215 1.30058 -34.212059 -0.287563 0.967171 -20.033218 0.964537 1.212844 0.0 -0.0 -0.0 -3.440388 0.788233 0.501656 -15.928189 -3.16731 2.999707 -6.338828 -1e-06 1e-06 -18.123453 3.648183 -4.90567 -4e-06 -0.0 -2e-06 9.590903 13.056578 14.249922 64.334244 7.875165 10.285355 -0.717907 19.067184 -0.19581 -11.161509 3.169798 1.976345 2.243543 -5.255037 -3.180157 14.282895 -0.826597 6.952506 -2e-06 -12.690609 3e-06 16.67252 -17.633137 2.341693 1.665667 -1.955922 -2.878301 4.727801 -4.170591 4.993927 11.020531 1e-06 -1e-06 12.109058 -3.735718 -2.866785 0.0 -0.0 -1e-06 1.291986 -1.928551 -1.49809 14.800136 0.567466 3.86561 14.242577 -1.341738 -6.660661 19.631973 0.143924 -0.648247 50.291409 -0.023378 -6.233218 0.353029 -1.511152 -0.031941 20.222801 3.68431 2.316632 18.787281 4e-06 -1e-06 10.751631 -0.47987 1.397907 0.0 -1e-06 2e-06 3.273808 0.305947 -0.580113 21.48682 11.830379 2.266131 8.16293 1e-06 -1e-06 18.39909 -3.798989 -4.940579 3e-06 1e-06 -3e-06 -10.46987 0.810398 -33.854786 0.068717 0.033318 34.476898 0.987036 15.728322 -3.238788 1.633847 -1.98093 -2.397905 -0.0 -0.0 2e-06 -12.230123 -1.428374 14.117409 -0.180002 1.361893 37.325916 8.456343 -4.371054 9.965013 -1.583194 0.706513 -25.907976 0.0 -0.0 -4e-06 
